<?xml version="1.0" encoding="UTF-8"?><svg id="a" xmlns="http://www.w3.org/2000/svg" viewBox="0 0 352.92 500"><path d="M176.73,.06c41,.38,77.92,12.83,109.86,38.6,36.59,29.52,58.15,67.83,64.91,114.5,3.15,21.75,.95,42.85-5.57,63.72-8.15,26.07-19.57,50.7-32.15,74.85-18.26,35.07-39,68.68-60.74,101.67-19.19,29.13-39.15,57.73-60.05,85.67-4.83,6.46-9.74,12.87-14.48,19.4-1.54,2.11-2.42,1.99-3.95-.03-21.05-27.7-41.36-55.94-60.9-84.73-18.78-27.68-36.89-55.79-53.72-84.7-16.31-28.01-31.6-56.54-43.71-86.66-6.96-17.33-12.87-34.99-15.33-53.63-1.84-13.96-.65-27.81,1.64-41.59,4.96-29.93,16.93-56.86,35.92-80.45C66.39,31.98,102.48,10.67,146.31,2.57c3.11-.57,6.27-.97,9.42-1.3,6.97-.74,13.95-1.5,21-1.21Zm-.15,260.69c54.08-.32,98.19-43.1,98.34-98.1,.15-56.16-45.3-98.57-98.26-98.65-52.89-.08-98.52,42.24-98.48,98.43,.04,54.87,43.84,97.98,98.41,98.32Z"/></svg>