<?xml version="1.0" encoding="UTF-8"?><svg id="a" xmlns="http://www.w3.org/2000/svg" viewBox="0 0 500 500" fill="currentColor" stroke="currentColor"><g id="b">
<path d="M237.74,.31c58.09-3.27,117.53,19.44,157.52,64.25,51.01,57.16,57.35,140.59,29.51,209.95-20.34,50.67-53.93,95.99-88.52,137.73-7.41,8.94-15.05,17.67-22.89,26.24s-15.92,17.02-24.11,25.3c-8.54,8.63-17.24,17.11-26.01,25.5-3.37,3.22-6.76,6.43-10.17,9.63-.5,.47-1.04,.96-1.72,1.07-1.1,.18-2.06-.68-2.85-1.47-8.16-8.2-16.92-15.8-25.24-23.85-8.27-8.01-16.37-16.19-24.29-24.54-7.91-8.35-15.64-16.88-23.17-25.58-6.97-8.06-13.77-16.27-20.37-24.63-49.36-62.46-98.17-134.62-96.51-217.93,1.16-58.38,34.18-113.57,80.9-147.4C169.05,13.4,203.16,2.25,237.74,.31Zm9.55,254.92c41.97,3.55,78.39-30.17,82.02-75.94,3.18-40.23-31.04-77.08-74.88-80.64-41.87-3.39-78.2,30.37-82.03,76.23-3.34,40.03,30.76,76.61,74.89,80.35Z"/></g></svg>