<?xml version="1.0" encoding="utf-8"?>
<!-- Generator: Adobe Illustrator 26.2.1, SVG Export Plug-In . SVG Version: 6.00 Build 0)  -->
<svg version="1.1" id="a" xmlns="http://www.w3.org/2000/svg" xmlns:xlink="http://www.w3.org/1999/xlink" x="0px" y="0px"
	 viewBox="0 0 500 500" style="enable-background:new 0 0 500 500;" xml:space="preserve">
<style type="text/css">
	.st0{stroke:#000000;}
</style>
<g id="b">
	<g>
		<path d="M251,500c-3.2,0-5.3-2.1-6.3-3c-4.6-4.4-9.3-8.9-13.9-13.2c-3.5-3.3-7-6.6-10.5-9.9l7.4-7.8c3.5,3.3,6.9,6.6,10.4,9.9
			c4.2,4,8.5,8,12.8,12.1c1.8-1.7,3.7-3.4,5.5-5.2l7.4,7.8c-2.4,2.3-4.8,4.5-7.2,6.8c-0.7,0.7-2.2,2.1-4.5,2.4
			C251.8,500,251.4,500,251,500z M281.5,473.7L274,466c3.6-3.6,7.2-7.2,10.6-10.6c8.3-8.6,15.8-16.6,23-24.4l7.9,7.3
			c-7.2,7.9-14.8,16-23.2,24.7C288.8,466.5,285.2,470.1,281.5,473.7z M202.9,456.6c-2.3-2.4-4.6-4.8-6.7-7.1
			c-10-11.1-18.3-20.4-26.1-29.5l8.2-7c7.7,9,16,18.3,25.9,29.2c2,2.2,4.2,4.5,6.5,6.9L202.9,456.6z M331.9,420l-8.1-7.1
			c11.3-13,21.4-25.2,30.8-37.5l8.5,6.5C353.6,394.4,343.4,406.8,331.9,420z M154.2,401.2c-11.2-13.7-21-26.4-29.9-39.1l8.8-6.2
			c8.8,12.4,18.5,25,29.5,38.5L154.2,401.2z M377.7,362.1l-8.8-6.2c9.6-13.6,18.3-27.3,25.9-40.7l9.4,5.3
			C396.4,334.2,387.5,348.2,377.7,362.1z M110.5,341.7c-9.4-14.6-17.6-29-24.4-43l9.7-4.7c6.6,13.6,14.7,27.7,23.8,41.9L110.5,341.7
			z M415.7,298.6l-9.7-4.8c3.6-7.3,7-14.7,10-22c3-7.3,5.7-14.9,7.8-22.4l10.3,3c-2.3,7.9-5,15.8-8.2,23.5
			C422.9,283.6,419.4,291.1,415.7,298.6z M75.9,276c-6.4-16.1-11.2-32.1-14.3-47.7l10.6-2.1c2.9,14.9,7.5,30.3,13.7,45.7L75.9,276z
			 M439.8,228.1l-10.6-1.8c1.9-11,2.8-22.2,2.8-33.2c0-4.7-0.2-9.5-0.5-14.2l10.7-0.8c0.4,4.9,0.5,10,0.5,15
			C442.8,204.7,441.8,216.5,439.8,228.1z M58.3,203.6c-0.4-5.5-0.7-11-0.7-16.4c0-1.3,0-2.6,0-3.8c0.2-9.9,1.3-19.9,3.3-29.8
			l10.6,2.1c-1.9,9.2-2.9,18.6-3.1,27.9c0,1.2,0,2.4,0,3.6c0,5.1,0.2,10.4,0.6,15.6L58.3,203.6z M428.3,155.5
			c-3.1-15.6-8.2-30.7-15.2-44.8l9.7-4.7c7.3,15,12.7,30.9,16.1,47.4L428.3,155.5z M77.8,132.9l-10.1-3.6
			c5.5-15.6,13.2-30.6,22.9-44.6l8.9,6.1C90.2,104.1,82.9,118.2,77.8,132.9z M401.3,90.1C392.5,76.9,382,65,370.1,54.7l7.1-8.1
			c12.6,11,23.8,23.6,33.1,37.6L401.3,90.1z M114,72.1l-8-7.2c11.2-12.6,23.8-23.7,37.6-33l6,8.9C136.5,49.7,124.6,60.3,114,72.1z
			 M351.2,40.4c-13.1-8.6-27.5-15.4-42.6-20.4l3.3-10.2c16.1,5.2,31.3,12.5,45.2,21.6L351.2,40.4z M170,28.9l-4.8-9.6
			c15.3-7.7,31.3-13.2,47.5-16.2l2,10.6C199.4,16.5,184.4,21.6,170,28.9z M285.6,14.2c-15.2-2.9-31.2-3.9-47.3-3.2l-0.2,0l-0.3-10.8
			c3.5-0.2,7.1-0.3,10.6-0.3c13.3,0,26.5,1.2,39.2,3.6L285.6,14.2z"/>
		<path d="M247.1,260.1l-0.2,0c-16-1.2-31.5-7.2-44.8-17.3l6.5-8.6c11.7,8.9,25.2,14.1,39.1,15.2l0.2,0L247.1,260.1z M271.5,258
			l-2.6-10.4c7.2-1.8,14.1-4.9,20.6-9.1c5.6-3.8,10.5-8.2,14.8-13l8.1,7.1c-4.8,5.5-10.5,10.5-16.8,14.9l-0.1,0.1
			C287.9,252.3,279.8,255.9,271.5,258z M185.1,225.6c-10.1-13.5-15.7-29.2-16.2-45.4l10.8-0.3c0.4,13.9,5.3,27.5,14.1,39.3
			L185.1,225.6z M325.5,212.1l-9.8-4.4c4.1-9.1,6.1-18.7,6.1-28.7c0-4.3-0.4-8.5-1.1-12.7l10.6-1.9c0.9,4.8,1.3,9.8,1.3,14.6
			C332.6,190.5,330.2,201.6,325.5,212.1z M182.3,159l-10.3-3c0.7-2.3,1.5-4.7,2.4-7c4.9-12.6,13.3-24,24.2-33.1l6.8,8.3
			c-9.6,7.9-16.8,17.8-21,28.6C183.6,154.9,182.9,156.9,182.3,159z M314,146.1c-6.5-12.8-16.6-23.2-29.1-29.9l5.1-9.5
			c14.4,7.8,26.1,19.8,33.6,34.5L314,146.1z M223.6,113.1l-4.3-9.9c10.4-4.5,21.1-6.8,32-6.8c0,0,0,0,0,0c1.4,0,2.7,0,4.1,0.1l0.2,0
			c4,0.3,7.9,0.9,11.7,1.7l-2.2,10.5c-3.3-0.7-6.8-1.2-10.3-1.5c-1.1-0.1-2.3-0.1-3.4-0.1c0,0,0,0,0,0
			C242,107.3,232.5,109.3,223.6,113.1z"/>
	</g>
</g>
</svg>
